<?xml version="1.0" encoding="utf-8"?>
<!-- Generator: Adobe Illustrator 23.0.3, SVG Export Plug-In . SVG Version: 6.00 Build 0)  -->
<svg version="1.1" id="Layer_1" xmlns="http://www.w3.org/2000/svg" xmlns:xlink="http://www.w3.org/1999/xlink" x="0px" y="0px"
	 viewBox="0 0 595.28 595.28" style="enable-background:new 0 0 595.28 595.28;" xml:space="preserve">
<style type="text/css">
	.st0{fill:#182A4C;}
	.st1{fill:#4A3841;}
	.st2{fill:#002F1F;}
</style>
<path class="st0" d="M500.24,369.53l50.47,18.16l-50.47,18.16L488,393.6v1.55c0,2.64-2.14,4.78-4.78,4.78
	c-1.81,0-3.37-1.02-4.18-2.51c-0.81,1.49-2.37,2.51-4.18,2.51c-2.64,0-4.78-2.14-4.78-4.78v-1.99h-34.44v-11.15h34.44v-2.99
	c0-2.64,2.14-4.78,4.78-4.78c1.81,0,3.37,1.02,4.18,2.51c0.81-1.49,2.37-2.51,4.18-2.51c2.64,0,4.78,2.14,4.78,4.78v2.74
	L500.24,369.53z M112.9,394.66v0.5c0,2.64,2.14,4.78,4.78,4.78c1.81,0,3.37-1.02,4.18-2.51c0.81,1.49,2.37,2.51,4.18,2.51
	c2.64,0,4.78-2.14,4.78-4.78v-1.99h26.08v-11.15h-26.08v-2.99c0-2.64-2.14-4.78-4.78-4.78c-1.81,0-3.37,1.02-4.18,2.51
	c-0.81-1.49-2.37-2.51-4.18-2.51c-2.64,0-4.78,2.14-4.78,4.78v1.69l-11.19-11.19l-50.47,18.16l50.47,18.16L112.9,394.66z
	 M356.25,276.1c12.86,35.24,28.24,56.41,38.7,67.85l-9.96,0c-2.27-3.3-5.13-7.22-8.67-11.85c-21.69-28.35-34.43-56.85-41.32-75.89
	c-0.64-1.78-3.3-1.01-2.92,0.84c10.16,48.78,27.65,75.64,36.69,86.9l-16.95,0c-19.79-35.6-34.79-84.24-41.62-108.64
	c-0.28-0.99-1.76-0.65-1.58,0.36c7.76,43.31,21.79,83.36,31.67,108.28l-13.85,0c-20.58-38.1-30.25-106-33.72-136.61
	c-0.12-1.02-1.63-0.92-1.61,0.11c1.1,63.68,16.25,122.72,20.03,136.5l-194.42,0c33.76-31.76,68.86-93.18,68.86-93.18l15.93,20.71
	c25.54-29.03,82.54-119.03,82.54-119.03c16,34,38.5,75,62.5,104l31.76-35.94c27.24,43.94,74.79,107.12,88.24,123.44l-54.63,0
	c-1.68-1.72-3.54-3.58-5.62-5.61c-23.41-22.85-38.73-47.02-47.49-63.38C357.97,273.42,355.66,274.47,356.25,276.1z M210.24,312.34
	c-8.24-14.42-13.76-27.74-17.26-37.76c-0.49-1.41-2.6-0.82-2.31,0.64c3.66,18.56,8.71,33.13,13.74,44.25
	C206.46,317.18,208.41,314.8,210.24,312.34z M173.42,415.23c-0.19,0.47-0.47,0.8-0.85,0.99c-0.38,0.19-0.88,0.32-1.51,0.38
	c-0.19,0-0.49-0.01-0.9-0.05c-0.41-0.03-0.82,0.02-1.23,0.14c-0.41,0.13-0.76,0.35-1.04,0.66c-0.28,0.32-0.43,0.82-0.43,1.51
	c0,0.69,0.13,1.23,0.38,1.61c0.25,0.38,0.6,0.65,1.04,0.8c0.44,0.16,0.95,0.25,1.51,0.28c0.57,0.03,1.13,0.05,1.7,0.05
	c0.76,0.06,1.67,0.09,2.74,0.09c1.07,0,2.19-0.01,3.36-0.05c1.17-0.03,2.33-0.05,3.5-0.05c1.17,0,2.22,0,3.17,0
	c0.44,0,0.91,0,1.42,0c0.5,0,0.98-0.09,1.42-0.28c0.44-0.19,0.82-0.47,1.13-0.85c0.32-0.38,0.47-0.91,0.47-1.61
	c0-1.07-0.41-1.75-1.23-2.03c-0.82-0.28-1.83-0.36-3.03-0.24c-0.57,0.06-0.98-0.05-1.23-0.33c-0.25-0.28-0.43-0.65-0.52-1.09
	c-0.09-0.44-0.14-0.96-0.14-1.56c0-0.6-0.03-1.21-0.09-1.84c-0.13-1.58-0.22-3.74-0.28-6.48c-0.06-2.74-0.11-5.72-0.14-8.94
	c-0.03-3.22-0.06-6.46-0.09-9.74c-0.03-3.28-0.05-6.21-0.05-8.8c0-0.5-0.02-1.48-0.05-2.93c-0.03-1.45,0-2.95,0.09-4.49
	c0.09-1.54,0.27-2.93,0.52-4.16c0.25-1.23,0.66-1.91,1.23-2.03c0.44-0.19,0.95-0.28,1.51-0.28s1.1-0.06,1.61-0.19
	c0.5-0.13,0.95-0.38,1.33-0.76c0.38-0.38,0.57-1.01,0.57-1.89c0-1.14-0.46-1.77-1.37-1.89c-0.91-0.13-1.84-0.16-2.79-0.09
	c-1.26,0.06-2.4,0.09-3.41,0.09c-1.01,0-1.99,0-2.93,0c-0.95,0-1.91-0.01-2.89-0.05c-0.98-0.03-2.07-0.05-3.26-0.05
	c-1.45-0.06-2.68-0.03-3.69,0.09c-1.01,0.13-1.51,0.79-1.51,1.99c0,1.13,0.3,1.84,0.9,2.13c0.6,0.28,1.34,0.46,2.22,0.52
	c0.76,0,1.34,0.17,1.75,0.52c0.41,0.35,0.68,0.82,0.8,1.42c0.13,0.6,0.19,1.29,0.19,2.08c0,0.79,0,1.59,0,2.41c0,1.26,0,2.92,0,4.97
	c0,2.05,0.02,4.3,0.05,6.76c0.03,2.46,0.06,5.03,0.09,7.71c0.03,2.68,0.06,5.27,0.09,7.76c0.03,2.49,0.05,4.79,0.05,6.91
	c0,2.11,0.03,3.83,0.09,5.16c0.06,1.51,0.08,2.73,0.05,3.64C173.72,414.06,173.61,414.76,173.42,415.23z M225.92,409.46
	c-0.19-0.16-0.41-0.49-0.66-0.99c-0.69-1.51-1.59-3.69-2.7-6.53c-1.1-2.84-2.32-5.77-3.64-8.8c-0.57-1.39-1.03-2.51-1.37-3.36
	c-0.35-0.85-0.66-1.64-0.95-2.36c-0.28-0.72-0.57-1.45-0.85-2.18c-0.28-0.72-0.65-1.66-1.09-2.79c-1.45-3.78-2.95-7.3-4.49-10.55
	c-1.55-3.25-3.3-6.61-5.25-10.07c-0.63-1.07-1.2-1.77-1.7-2.08c-0.25-0.19-0.51-0.28-0.76-0.28c-0.63-0.13-1.26-0.19-1.89-0.19
	c-0.5,0-1.07,0.03-1.7,0.09c-0.63,0.06-1.23,0.25-1.8,0.57c-0.88,0.51-1.39,1.61-1.51,3.31c-0.13,1.7-0.19,3.69-0.19,5.96
	c0,1.13,0,2.93,0,5.39c0,2.46,0,5.11,0,7.95c0,2.84,0,5.6,0,8.28c0,2.68,0,4.81,0,6.39c0,1.58,0.03,3.33,0.09,5.25
	c0.06,1.92,0.11,3.78,0.14,5.58c0.03,1.8,0.06,3.44,0.09,4.92c0.03,1.48,0.01,2.54-0.05,3.17c-0.06,1.26-0.08,2.26-0.05,2.98
	c0.03,0.73,0.17,1.29,0.43,1.7c0.25,0.41,0.66,0.68,1.23,0.8c0.57,0.13,1.36,0.19,2.37,0.19c1.45,0,2.63,0,3.55,0
	c0.91,0,1.64-0.24,2.18-0.71c0.54-0.47,0.87-1.28,0.99-2.41c0.13-1.14,0.13-2.84,0-5.11c-0.06-0.63-0.11-1.77-0.14-3.41
	c-0.03-1.64-0.06-3.56-0.09-5.77c-0.03-2.21-0.08-4.62-0.14-7.24c-0.06-2.62-0.11-5.25-0.14-7.9c-0.03-2.65-0.06-5.23-0.09-7.76
	c-0.03-2.52-0.05-4.76-0.05-6.72c0.32,0.76,0.65,1.58,0.99,2.46c0.35,0.88,0.65,1.67,0.9,2.36c0.57,1.26,1.06,2.35,1.47,3.26
	c0.41,0.91,0.8,1.77,1.18,2.55c0.38,0.79,0.74,1.59,1.09,2.41c0.35,0.82,0.71,1.7,1.09,2.65c0.63,1.58,1.37,3.42,2.22,5.53
	c0.85,2.11,1.7,4.29,2.55,6.53c0.85,2.24,1.7,4.45,2.55,6.62c0.85,2.18,1.66,4.05,2.41,5.63c0.19,0.51,0.47,1.14,0.85,1.89
	c0.38,0.76,0.8,1.51,1.28,2.27c0.47,0.76,0.95,1.4,1.42,1.94c0.47,0.54,0.9,0.8,1.28,0.8c0.88,0,1.59-0.11,2.13-0.33
	c0.54-0.22,0.87-0.87,0.99-1.94c0.13-1.26,0.24-2.38,0.33-3.36c0.09-0.98,0.16-2.05,0.19-3.22c0.03-1.17,0.06-2.51,0.09-4.02
	c0.03-1.51,0.08-3.44,0.14-5.77c0-2.65,0-4.89,0-6.72c0-1.83-0.03-3.56-0.09-5.2c-0.06-1.64-0.09-3.34-0.09-5.11
	c0-1.76,0-3.91,0-6.43c0-2.21,0.01-3.99,0.05-5.34c0.03-1.36,0.06-2.57,0.09-3.64c0.03-1.07,0.05-2.13,0.05-3.17
	c0-1.04,0-2.35,0-3.93c0.06-1.51-0.05-2.63-0.33-3.36c-0.28-0.72-0.8-1.02-1.56-0.9c-0.88,0.13-1.59,0.51-2.13,1.14
	c-0.54,0.63-0.84,2.14-0.9,4.54c0.06,2.21,0.09,4.21,0.09,6.01c0,1.8-0.03,3.71-0.09,5.72c0,2.21,0.02,4.72,0.05,7.52
	c0.03,2.81,0.08,5.69,0.14,8.66c0.06,2.97,0.11,5.88,0.14,8.75c0.03,2.87,0.02,5.44-0.05,7.71
	C226.21,409.57,226.11,409.62,225.92,409.46z M246.54,417.83c-0.06,0.82,0.01,1.45,0.24,1.89c0.22,0.44,0.52,0.77,0.9,0.99
	c0.38,0.22,0.82,0.36,1.33,0.43c0.5,0.06,1.04,0.09,1.61,0.09c0.13,0.06,0.35,0.09,0.66,0.09c1.2,0.06,2.33-0.17,3.41-0.71
	c1.07-0.54,1.61-1.43,1.61-2.7c0-0.38-0.03-1.76-0.09-4.16c-0.06-2.4-0.14-5.28-0.24-8.66c-0.09-3.37-0.19-7.02-0.28-10.93
	c-0.09-3.91-0.19-7.65-0.28-11.21c-0.09-3.56-0.16-6.67-0.19-9.32c-0.03-2.65-0.02-4.41,0.05-5.3c0.13-1.83,0.31-3.03,0.57-3.59
	c0.25-0.57,0.66-0.88,1.23-0.95c0.19-0.06,0.5-0.09,0.95-0.09c0.76,0,1.53-0.01,2.32-0.05c0.79-0.03,1.51-0.14,2.18-0.33
	c0.66-0.18,1.2-0.45,1.61-0.79c0.41-0.34,0.61-0.85,0.61-1.53c0-1.11-0.66-1.76-1.99-1.95c-1.32-0.19-2.93-0.19-4.82,0
	c-2.46,0.13-4.7,0.19-6.72,0.19c-2.02,0-4.16-0.03-6.43-0.09c-0.88,0-1.81-0.03-2.79-0.09c-0.98-0.06-1.86-0.05-2.65,0.05
	c-0.79,0.09-1.44,0.31-1.94,0.65c-0.51,0.34-0.76,0.88-0.76,1.62c0,1.24,0.55,1.98,1.66,2.23c1.1,0.25,2.54,0.37,4.3,0.37
	c0.5-0.06,0.98,0,1.42,0.19c0.38,0.13,0.74,0.35,1.09,0.66c0.35,0.32,0.58,0.79,0.71,1.42c0.13,0.82,0.22,2.57,0.28,5.25
	c0.06,2.68,0.13,5.82,0.19,9.41c0.06,3.59,0.13,7.44,0.19,11.54c0.06,4.1,0.09,7.91,0.09,11.45c0,3.53,0,6.59,0,9.18
	C246.54,415.69,246.54,417.26,246.54,417.83z M301.27,387.13c0.35,4.07,0.46,8.09,0.33,12.06c-0.19,5.3-1.39,10.25-3.59,14.85
	c-1.07,2.02-2.36,3.66-3.88,4.92c-1.51,1.26-3.22,2.05-5.11,2.37c-0.32,0.06-0.63,0.11-0.95,0.14c-0.32,0.03-0.63,0.05-0.95,0.05
	c-3.15,0-6.12-1.29-8.89-3.88c-1.26-1.2-2.32-2.51-3.17-3.93c-0.85-1.42-1.56-2.89-2.13-4.4c-0.57-1.51-1.04-3.11-1.42-4.78
	c-0.38-1.67-0.69-3.39-0.95-5.16c-0.32-1.95-0.55-4.1-0.71-6.43c-0.16-2.33-0.17-4.95-0.05-7.85c0.13-2.46,0.33-4.64,0.62-6.53
	c0.28-1.89,0.69-3.64,1.23-5.25c0.54-1.61,1.21-3.17,2.03-4.68c0.82-1.51,1.83-3.12,3.03-4.82c1.2-1.45,2.57-2.6,4.11-3.45
	c1.54-0.85,3.2-1.28,4.97-1.28c1.64-0.06,3.15,0.24,4.54,0.9c1.39,0.66,2.58,1.59,3.59,2.79c2.96,3.72,4.82,7.57,5.58,11.54
	C300.34,378.8,300.92,383.07,301.27,387.13z M296.54,392.95c-0.09-2.14-0.25-4.35-0.47-6.62c-0.22-2.27-0.49-4.43-0.8-6.48
	c-0.32-2.05-0.63-3.64-0.95-4.78c-0.44-1.64-1.03-3.2-1.75-4.68c-0.73-1.48-1.53-2.76-2.41-3.83c-0.25-0.25-0.58-0.46-0.99-0.61
	c-0.41-0.16-0.87-0.14-1.37,0.05c-0.51,0.19-1.06,0.6-1.66,1.23c-0.6,0.63-1.21,1.64-1.84,3.03c-0.69,1.39-1.26,2.7-1.7,3.93
	c-0.44,1.23-0.8,2.51-1.09,3.83c-0.28,1.32-0.52,2.76-0.71,4.3c-0.19,1.55-0.32,3.3-0.38,5.25c-0.13,2.4-0.11,4.76,0.05,7.09
	c0.16,2.33,0.39,4.54,0.71,6.62c0.32,2.08,0.72,3.96,1.23,5.63c0.5,1.67,1.04,2.98,1.61,3.93c1.45,2.4,2.92,3.72,4.4,3.97
	c1.48,0.25,2.82-0.32,4.02-1.7c0.63-0.95,1.1-1.8,1.42-2.55c0.82-1.76,1.45-3.64,1.89-5.63c0.44-1.99,0.72-4.27,0.85-6.86
	C296.65,396.8,296.63,395.1,296.54,392.95z M344.92,364.76c0.25-0.57,0.66-0.88,1.23-0.95c0.19-0.06,0.5-0.09,0.95-0.09
	c0.76,0,1.53-0.01,2.32-0.05c0.79-0.03,1.51-0.14,2.18-0.33c0.66-0.18,1.2-0.45,1.61-0.79c0.41-0.34,0.61-0.85,0.61-1.53
	c0-1.11-0.66-1.76-1.99-1.95c-1.32-0.19-2.93-0.19-4.82,0c-2.46,0.13-4.7,0.19-6.72,0.19c-2.02,0-4.16-0.03-6.43-0.09
	c-0.88,0-1.81-0.03-2.79-0.09c-0.98-0.06-1.86-0.05-2.65,0.05c-0.79,0.09-1.44,0.31-1.94,0.65c-0.51,0.34-0.76,0.88-0.76,1.62
	c0,1.24,0.55,1.98,1.66,2.23c1.1,0.25,2.54,0.37,4.3,0.37c0.5-0.06,0.98,0,1.42,0.19c0.38,0.13,0.74,0.35,1.09,0.66
	c0.35,0.32,0.58,0.79,0.71,1.42c0.13,0.82,0.22,2.57,0.28,5.25c0.06,2.68,0.13,5.82,0.19,9.41c0.06,3.59,0.13,7.44,0.19,11.54
	c0.06,4.1,0.09,7.91,0.09,11.45c0,3.53,0,6.59,0,9.18c0,2.59,0,4.16,0,4.73c-0.06,0.82,0.01,1.45,0.24,1.89
	c0.22,0.44,0.52,0.77,0.9,0.99c0.38,0.22,0.82,0.36,1.33,0.43c0.5,0.06,1.04,0.09,1.61,0.09c0.13,0.06,0.35,0.09,0.66,0.09
	c1.2,0.06,2.33-0.17,3.41-0.71c1.07-0.54,1.61-1.43,1.61-2.7c0-0.38-0.03-1.76-0.09-4.16c-0.06-2.4-0.14-5.28-0.24-8.66
	c-0.09-3.37-0.19-7.02-0.28-10.93c-0.09-3.91-0.19-7.65-0.28-11.21c-0.09-3.56-0.16-6.67-0.19-9.32c-0.03-2.65-0.02-4.41,0.05-5.3
	C344.48,366.53,344.67,365.33,344.92,364.76z M359.58,416.88c0,1.58,0.13,2.71,0.38,3.41c0.25,0.69,0.95,1.17,2.1,1.42
	c1.02,0.32,2.08,0.46,3.2,0.43c1.11-0.03,2.05-0.11,2.82-0.24c0.83-0.19,1.45-0.38,1.86-0.57c0.41-0.19,0.68-0.62,0.81-1.28
	c0.13-0.66,0.16-1.61,0.1-2.84c-0.06-1.23-0.09-2.98-0.09-5.25c-0.06-0.69-0.09-1.47-0.09-2.32c0-0.85,0-1.81,0-2.89
	c0-0.5,0.2-0.95,0.61-1.32c0.41-0.38,0.86-0.57,1.36-0.57c1.5,0.06,2.87,0.09,4.09,0.09s2.52,0.06,3.9,0.19
	c1.44-0.06,2.36,0.17,2.77,0.71c0.41,0.54,0.7,1.56,0.89,3.07c0.13,1.51,0.16,2.74,0.09,3.69c-0.06,0.95-0.13,2.02-0.19,3.22
	c0,0.69-0.02,1.42-0.05,2.18c-0.03,0.76,0.03,1.43,0.19,2.03c0.16,0.6,0.46,1.07,0.9,1.42c0.44,0.35,1.1,0.49,1.99,0.43
	c0.63,0,1.09-0.22,1.37-0.66c0.28-0.44,0.47-1.01,0.57-1.7c0.09-0.69,0.13-1.43,0.09-2.22c-0.03-0.79-0.05-1.53-0.05-2.22
	c-0.13-1.58-0.22-3.56-0.28-5.96c-0.06-2.4-0.09-4.84-0.09-7.33c0-2.49,0-4.87,0-7.14c0-2.27,0-4.07,0-5.39
	c-0.13-2.02-0.21-5.12-0.24-9.32c-0.03-4.19,0.01-9.29,0.14-15.28v-0.09c0.06-0.69,0.08-1.5,0.05-2.41
	c-0.03-0.91-0.11-1.59-0.24-2.03c-0.19-0.63-0.63-1.01-1.32-1.13c-0.69-0.13-1.39-0.06-2.08,0.19c-0.69,0.32-1.1,0.96-1.23,1.94
	c-0.13,0.98-0.19,2.13-0.19,3.45c0,0.95,0,2.22,0,3.83c0,1.61,0,3.39,0,5.34c0,1.96,0.01,4.01,0.05,6.15
	c0.03,2.14,0.05,4.19,0.05,6.15c0,1.96-0.02,3.71-0.05,5.25c-0.03,1.55-0.05,2.73-0.05,3.55c0,0.76-0.02,1.45-0.05,2.08
	c-0.03,0.63-0.16,1.17-0.38,1.61c-0.22,0.44-0.59,0.79-1.13,1.04c-0.53,0.25-1.33,0.38-2.4,0.38c-1,0-2.14-0.01-3.43-0.05
	c-1.28-0.03-2.55-0.08-3.8-0.14c-1.19-0.13-1.78-0.76-1.78-1.89c0-2.46,0.01-4.93,0.05-7.43c0.03-2.49,0.06-4.81,0.09-6.95
	c0.03-2.14,0.05-3.99,0.05-5.53c0-1.54,0-2.57,0-3.07c0-0.82,0.03-2.06,0.09-3.74c0.06-1.67,0.08-3.36,0.05-5.06
	c-0.03-1.7-0.17-3.2-0.43-4.49c-0.25-1.29-0.73-2.03-1.43-2.22c-0.57-0.13-1.26-0.22-2.05-0.28c-0.8-0.06-1.59-0.09-2.38-0.09
	c-0.8,0-1.53,0.05-2.2,0.14c-0.67,0.09-1.13,0.17-1.38,0.24c-0.7,0.19-1.11,0.49-1.24,0.9c-0.13,0.41-0.19,0.93-0.19,1.56
	c0.06,6.24,0.11,12.38,0.14,18.4c0.03,6.02,0.08,11.68,0.14,16.98c-0.13,3.97-0.22,7.51-0.28,10.59
	C359.71,410.89,359.65,413.92,359.58,416.88z M404.94,421.8c1.48,0,2.93-0.06,4.35-0.19c1.42-0.13,2.84-0.3,4.26-0.52
	c1.42-0.22,2.89-0.39,4.4-0.52c1.13-0.25,2.1-0.5,2.88-0.76c0.79-0.25,1.24-0.88,1.37-1.89c0.06-0.76-0.24-1.47-0.9-2.13
	c-0.66-0.66-1.53-0.87-2.6-0.61c-1.07,0.19-2.29,0.47-3.64,0.85c-1.36,0.38-3.17,0.63-5.44,0.76c-0.5,0.06-0.99,0.11-1.47,0.14
	c-0.47,0.03-0.9,0.05-1.28,0.05v-11.26c1.83-0.13,3.5-0.17,5.01-0.14c1.51,0.03,3.41,0.11,5.68,0.24c1.45,0.19,2.37,0,2.74-0.57
	c0.38-0.57,0.5-1.39,0.38-2.46c-0.19-1.76-1.42-2.52-3.69-2.27c-1.7,0.19-3.41,0.3-5.11,0.33c-1.7,0.03-3.37-0.02-5.01-0.14v-36.14
	h0.19c2.08,0.13,4.16,0.13,6.24,0c2.08-0.13,4.16-0.13,6.24,0c0.5,0,1.09-0.19,1.75-0.57c0.66-0.38,0.99-0.95,0.99-1.7
	c0-1.2-0.39-1.99-1.18-2.36c-0.79-0.38-1.81-0.6-3.08-0.66c-0.82,0-2.32,0-4.49,0c-2.18,0-4.42-0.01-6.72-0.05
	c-2.3-0.03-4.35-0.05-6.15-0.05c-1.8,0-2.76,0.03-2.89,0.09c-2.21,0.69-2.74,1.92-1.61,3.69c0.19,0.25,0.33,1.66,0.43,4.21
	c0.09,2.55,0.17,5.68,0.24,9.37c0.06,3.69,0.11,7.69,0.14,12.01c0.03,4.32,0.05,8.4,0.05,12.25c0,3.85-0.02,7.17-0.05,9.98
	c-0.03,2.81-0.05,4.56-0.05,5.25c0,0.95,0,1.72,0,2.32c0,0.6,0.09,1.09,0.28,1.47c0.19,0.38,0.5,0.68,0.95,0.9
	c0.44,0.22,1.13,0.43,2.08,0.62C401.9,421.65,403.46,421.8,404.94,421.8z M106.17,279.28l0.02-0.08c0.63-2.31-0.98-4.82-3.6-5.59
	l-74.8-21.86c-2.62-0.78-5.48,1.25-6.38,4.53l-0.03,0.12c-0.9,3.28,0.54,6.47,3.2,7.12l75.63,18.77
	C102.87,282.94,105.54,281.59,106.17,279.28z M134.37,282.89l-12.12-3.54c-2.62-0.78-5.23,0.39-5.84,2.61l-0.02,0.08
	c-0.61,2.22,1.04,4.54,3.7,5.19l12.26,3.04c2.65,0.65,5.26-0.41,5.79-2.36l0.02-0.07C138.69,285.88,136.99,283.66,134.37,282.89z
	 M147.65,190.39c2.23,2.25,5.8,2.38,8.08,0.4l0.09-0.07c2.33-1.93,2.51-5.38,0.41-7.72l-45.59-50.22c-2.11-2.34-6.27-2.2-9.29,0.32
	l-0.11,0.09c-2.97,2.57-3.49,6.57-1.28,8.79L147.65,190.39z M57.43,191.65l51.49,28.67c2.39,1.32,5.37,0.55,6.66-1.72l0.05-0.08
	c1.24-2.3,0.56-5.21-1.79-6.65l-50.28-30.74c-2.31-1.42-5.73-0.3-7.37,2.68l-0.06,0.11C54.45,186.86,55.04,190.33,57.43,191.65z
	 M135.93,230.38l-0.04,0.08c-1.16,2.06-0.17,4.81,2.22,6.13l16.32,9.09c2.39,1.32,5.15,0.96,6.14-0.81l0.04-0.07
	c0.95-1.8,0.02-4.31-2.32-5.75l-15.94-9.74C140.04,227.87,137.05,228.29,135.93,230.38z M289.04,123.23l0.1,0
	c2.61-0.06,4.8-2.1,4.89-4.85l1.79-58.91c0.09-2.71-2.58-5.13-5.99-5.07l-0.12,0c-3.4,0.01-6.13,2.24-6.09,4.97l0.63,58.93
	C284.28,121.04,286.43,123.24,289.04,123.23z M204.31,136.76c1.47,2.3,4.47,3.07,6.69,1.7l0.08-0.05c2.23-1.36,2.92-4.41,1.58-6.75
	l-29.45-51.04c-1.38-2.4-4.83-2.89-7.74-1.11l-0.11,0.06c-2.91,1.78-4.06,5.1-2.59,7.4L204.31,136.76z M232.18,180.77
	c1.47,2.3,4.07,3.32,5.79,2.26l0.06-0.04c1.72-1.06,2.01-3.87,0.67-6.21l-9.34-16.18c-1.38-2.4-4.1-3.31-6.12-2.07l-0.07,0.04
	c-2.01,1.24-2.46,4.1-0.99,6.41L232.18,180.77z M343.58,149.8l0.09,0.02c2.36,0.48,4.78-1.07,5.49-3.72l19.77-75.37
	c0.7-2.63-1.37-5.57-4.68-6.28l-0.12-0.03c-3.3-0.75-6.45,0.81-7.03,3.48l-16.72,76.11C339.8,146.68,341.23,149.28,343.58,149.8z
	 M335.84,181.98l0.07,0.02c2.01,0.39,4.14-1.23,4.85-3.89l3.2-12.22c0.7-2.63-0.51-5.34-2.77-5.8l-0.08-0.02
	c-2.25-0.5-4.54,1.25-5.12,3.92l-2.71,12.33C332.7,179.01,333.84,181.55,335.84,181.98z M395.52,141.62
	c0.42,0.47,0.93,0.85,1.53,1.12l0.09,0.04c2.38,1.08,5.23-0.06,6.38-2.55l24.51-53.59c1.15-2.48-0.44-5.63-3.54-7.03l-0.11-0.05
	c-0.77-0.35-1.57-0.55-2.33-0.62c-0.78-0.05-1.53,0.05-2.22,0.25c-1.37,0.42-2.47,1.31-2.99,2.58l-22.29,54.56
	c-0.52,1.27-0.48,2.61-0.02,3.75C394.75,140.66,395.09,141.18,395.52,141.62z M436.91,184.16c1.82,1.56,4.78,1.16,6.59-0.89
	l51.43-58.54c1.81-2.05,1.19-5.5-1.4-7.7l-0.09-0.08c-2.59-2.2-6.07-2.26-7.81-0.1l-49,60.59c-1.69,2.1-1.61,5.12,0.21,6.67
	L436.91,184.16z M423.76,193.35l-7.94,9.82c-1.69,2.1-1.85,4.93-0.3,6.24l0.06,0.05c1.54,1.32,4.27,0.72,6.08-1.33l8.34-9.49
	c1.81-2.05,1.86-4.91,0.11-6.41l-0.06-0.05C428.27,190.7,425.49,191.19,423.76,193.35z M479.41,214.22l0.05,0.08
	c1.26,2.29,4.22,3.08,6.62,1.76l51.56-28.54c2.4-1.31,3.01-4.79,1.36-7.76l-0.06-0.11c-1.74-2.92-5.09-4.1-7.41-2.67l-50.35,30.62
	C478.82,209.03,478.06,211.98,479.41,214.22z M573.74,245.79l-0.04-0.12c-1.08-3.23-4.2-4.98-6.75-3.99l-72.77,27.87
	c-2.55,0.99-3.86,3.58-3.12,5.86l0.03,0.08c0.78,2.27,3.52,3.4,6.11,2.54l73.86-24.85C573.66,252.32,574.86,249.01,573.74,245.79z
	 M475.06,276.87l-11.79,4.52c-2.55,0.99-3.96,3.3-3.35,5.23l0.02,0.07c0.65,1.92,3.3,2.76,5.89,1.9l11.97-4.03
	c2.59-0.86,4.08-3.32,3.34-5.49l-0.03-0.08C480.41,276.79,477.61,275.88,475.06,276.87z M242.78,431.66
	c0.14,0.64,0.26,1.7,0.36,3.18l-22.98,105.04c-0.95,0.09-2.09,0.14-3.43,0.14c-1.33,0-2.55-0.01-3.64-0.04
	c-1.1-0.02-2.36-0.05-3.78-0.07c-1.43-0.02-2.59-0.04-3.5-0.04c-1.95,0-4.91-0.02-8.88-0.07c-3.97-0.05-6.96-0.07-8.96-0.07
	c-0.24,0-4.88,0.14-13.92,0.43l-8.85-57.52c-0.19,1.28-0.56,4.31-1.11,9.06c-0.55,4.76-1.15,9.75-1.82,14.99
	c-0.67,5.23-1.4,10.48-2.21,15.74c-0.81,5.26-1.74,9.6-2.78,13.02c-1.05,3.43-2.09,5.14-3.14,5.14c-2.05,0-5.07-0.05-9.06-0.14
	c-4-0.1-7.02-0.14-9.06-0.14c-9.18,0-17.65,0.19-25.4,0.57c-0.67-0.33-1.25-0.86-1.75-1.57c-0.5-0.71-0.9-1.57-1.21-2.57
	c-0.31-1-0.55-1.89-0.71-2.68c-0.17-0.79-0.33-1.78-0.5-3c-0.17-1.21-0.3-2.03-0.39-2.46c-8.23-39.25-13.32-63.13-15.27-71.65
	l-5-23.98c0-1.33,0.67-2.24,2-2.71c1.14,0.1,2.95,0.14,5.42,0.14h5.71c1.14,0,2.78-0.05,4.92-0.14c2.14-0.09,3.69-0.14,4.64-0.14
	c0.9-0.05,2.24-0.04,4,0.04c1.76,0.07,2.9,0.11,3.43,0.11h4.14c0.48,0.1,1.19,0.14,2.14,0.14h2.14c0.86,0.24,1.71,1.88,2.57,4.92
	c0.86,3.04,1.66,7.23,2.43,12.56c0.76,5.33,1.38,9.98,1.86,13.95c0.48,3.97,1.01,8.78,1.61,14.42c0.59,5.64,0.89,8.5,0.89,8.6
	l9.06-54.31c2.28,0.19,4.09,0.29,5.42,0.29h4.42c3.85,0,9.43-0.02,16.73-0.07c7.3-0.05,12.76-0.07,16.38-0.07
	c1,0,1.62,0.38,1.86,1.14l8.92,59.02c0.9-10.85,2.02-20.77,3.35-29.76l4.28-28.97c0.33-1.14,2-1.71,5-1.71h3.43
	c0.57-0.05,1.46-0.04,2.68,0.04c1.21,0.07,2.08,0.11,2.6,0.11h6.28c1.76,0,3.75,0.02,5.96,0.07c2.21,0.05,3.37,0.07,3.46,0.07h8.42
	C242.35,430.69,242.64,431.02,242.78,431.66z M122.91,474.95l-5.75-35.13l-21.5,0.63c0,0,12.75,60.63,12.75,60.13
	s6.96-29.29,6.96-29.29L122.91,474.95z M182.41,465.57l-5.38-25.25l-26.25,0.5l-6.25,36.75l9.88,4.38l16.25-24L182.41,465.57z
	 M232.66,440.82l-19.63-0.13l-5.63,33.38l15.75,7.25L232.66,440.82z M285.03,431.26c3.81,0,6.42-0.09,7.85-0.29v109.18h-46.1
	c0.19-13.84,0.52-23.98,1-30.4c0-19.98,0.29-40.25,0.86-60.8c-0.19-4-0.29-6.95-0.29-8.85v-2.14c-0.19-2.09-0.29-3.81-0.29-5.14
	c0-0.9,0.43-1.71,1.28-2.43C257.15,430.98,269.04,431.26,285.03,431.26z M283.87,443.61l-26.17-0.5l0.33,47.5l19,9.83l5.75-10
	L283.87,443.61z M391.36,510.33v27.4c-0.62,1.71-11.23,2.57-31.83,2.57h-49.38c-1.14-1.67-1.71-4.33-1.71-7.99v-20.27
	c0-5.95,0.05-14.75,0.14-26.4c0.09-11.66,0.14-20.46,0.14-26.4c0-1.09-0.07-3.52-0.21-7.28c-0.14-3.76-0.21-6.75-0.21-8.99
	c0-7.75,0.81-12.08,2.43-12.99c0.48,0.1,1.14,0.14,2,0.14H315c1.47,0,3.9-0.05,7.28-0.14c3.38-0.09,5.95-0.14,7.71-0.14
	c6.75,0,12.21,0.27,16.38,0.82c4.16,0.55,6.51,1.56,7.03,3.03l-0.86,73.65h1.57c3.81-0.19,6.47-0.27,7.99-0.25
	c1.52,0.02,4.32,0.12,8.39,0.29c4.07,0.17,7.98,0.25,11.74,0.25c3.09,0,5.39,0.18,6.89,0.54
	C390.61,508.51,391.36,509.24,391.36,510.33z M340.53,442.95l-18.5,0.75l-1.75,38.25l20.25,11.75V442.95z M505.04,471.08
	c0.81,4.19,1.21,8.52,1.21,12.99c0,6.95-0.95,13.44-2.85,19.48c-1.9,6.04-4.51,11.28-7.81,15.7c-3.31,4.42-7.18,8.24-11.63,11.45
	c-4.45,3.21-9.27,5.61-14.45,7.21c-5.19,1.59-10.54,2.39-16.06,2.39h-2.28c-2.05,0-5.09-0.05-9.13-0.14
	c-4.04-0.1-7.09-0.14-9.13-0.14c-11.94,0-22.74,0.19-32.4,0.57c-1.14-2.28-1.71-4.38-1.71-6.28V433.55c0-0.52,0.3-0.99,0.89-1.39
	c0.59-0.4,1.46-0.71,2.6-0.93c1.14-0.21,2.28-0.39,3.43-0.54c1.14-0.14,2.51-0.24,4.1-0.29c1.59-0.05,2.91-0.07,3.96-0.07
	c1.05,0,2.25,0.01,3.6,0.04c1.36,0.02,2.15,0.04,2.39,0.04h7.99c1.57,0,3.77-0.05,6.6-0.14c2.83-0.09,4.91-0.14,6.24-0.14
	c22.69,0,38.92,3.9,48.67,11.7l2.57,2.28c0.81,0.76,1.71,1.75,2.71,2.96c1,1.21,2.22,3.05,3.68,5.5c1.45,2.45,2.75,5.1,3.89,7.96
	C503.25,463.38,504.23,466.9,505.04,471.08z M463.86,479.79c0-8.75-1.74-15.21-5.21-19.38c-3.47-4.16-9.54-6.36-18.2-6.6
	c-0.24,0.52-0.62,1.24-1.14,2.14c-0.52,0.9-0.9,1.62-1.14,2.14v3.43c0,0.71-0.02,2.57-0.07,5.57c-0.62,31.88,0.26,48,2.64,48.38
	c2.85,0,5.42-0.32,7.71-0.96c2.28-0.64,4.21-1.49,5.78-2.53c1.57-1.05,2.95-2.38,4.14-4c1.19-1.62,2.13-3.28,2.82-5
	c0.69-1.71,1.24-3.68,1.64-5.89c0.4-2.21,0.68-4.3,0.82-6.28c0.14-1.97,0.21-4.17,0.21-6.6V479.79z M492.78,474.2
	c0,0-1.5-33.5-30.5-35s-53,2-53,2v5.75c-0.17,0.5-0.25,49.33-0.25,49.33l15.33-14.5l6.83,4l-0.67-41.08c0,0,29.08-4.67,37.25,9.5
	c8.17,14.17,9,28.25,9,28.25L492.78,474.2z"/>
</svg>
